<?xml version="1.0" standalone="no"?>
<!DOCTYPE svg PUBLIC "-//W3C//DTD SVG 20010904//EN"
 "http://www.w3.org/TR/2001/REC-SVG-20010904/DTD/svg10.dtd">
<svg version="1.0" xmlns="http://www.w3.org/2000/svg"
 width="76.000000pt" height="76.000000pt" viewBox="0 0 76.000000 76.000000"
 preserveAspectRatio="xMidYMid meet">
<metadata>
Created by potrace 1.10, written by Peter Selinger 2001-2011
</metadata>
<g transform="translate(0.000000,76.000000) scale(0.100000,-0.100000)"
fill="#000000" stroke="none">
<path d="M201 556 c-87 -87 -122 -129 -118 -140 11 -27 34 -18 52 20 19 40
177 200 206 207 10 3 22 0 26 -5 4 -7 1 -8 -7 -3 -9 5 -11 4 -6 -4 4 -6 11 -9
15 -6 9 5 168 -151 163 -160 -5 -11 29 -65 42 -65 39 0 15 36 -103 154 -69 69
-131 126 -136 126 -6 0 -66 -56 -134 -124z"/>
<path d="M243 531 l-93 -95 0 -178 0 -178 25 0 c24 0 25 2 25 70 l0 70 140 0
140 0 0 -70 c0 -66 1 -70 23 -70 22 0 23 3 19 70 -2 39 -1 70 2 70 4 0 34 -29
67 -65 34 -36 68 -65 75 -65 17 0 18 12 2 28 -9 9 -9 12 0 12 7 0 12 5 12 11
0 6 -9 9 -20 6 -24 -6 -43 15 -33 38 5 15 3 17 -12 12 -22 -9 -46 10 -38 30 4
11 2 14 -8 11 -35 -13 -44 8 -47 109 l-3 98 -92 90 -92 90 -92 -94z m133 34
c17 -13 15 -14 -36 -14 -51 0 -53 1 -36 14 11 8 27 15 36 15 9 0 25 -7 36 -15z
m76 -78 l27 -27 -28 0 c-20 0 -30 6 -34 20 -5 18 -14 20 -80 20 -67 0 -76 -2
-82 -20 -4 -13 -15 -20 -32 -20 l-26 0 24 24 c31 31 50 35 134 32 61 -2 74 -6
97 -29z m-42 -67 l0 -70 -69 0 c-73 0 -80 5 -75 50 1 14 3 40 3 58 l1 32 70 0
70 0 0 -70z m-160 -20 c0 -27 -9 -35 -33 -31 -5 1 -6 -3 -2 -9 9 -15 -4 -12
-21 4 -11 12 -13 35 -5 64 1 1 15 2 31 2 27 0 30 -3 30 -30z m235 22 c19 -13
13 -52 -7 -52 -11 0 -17 -4 -14 -8 3 -5 -1 -9 -9 -9 -8 0 -12 4 -9 9 3 4 -2 8
-10 8 -16 0 -23 40 -9 53 9 9 45 9 58 -1z m7 -91 c11 -2 -4 -42 -19 -48 -11
-4 -10 -8 4 -19 15 -11 -5 -13 -137 -13 -138 0 -153 1 -136 14 17 13 17 15 4
15 -17 0 -33 33 -25 48 4 5 276 9 309 3z"/>
<path d="M290 420 l0 -50 50 0 50 0 0 50 0 50 -50 0 -50 0 0 -50z m75 -1 c0
-19 -6 -25 -27 -27 -20 -2 -28 1 -28 12 0 29 11 43 33 41 16 -1 22 -8 22 -26z"/>
</g>
</svg>
